<?xml version="1.0" encoding="UTF-8"?>
<svg xmlns="http://www.w3.org/2000/svg" xmlns:xlink="http://www.w3.org/1999/xlink" width="899.104pt" height="236.648pt" viewBox="0 0 899.104 236.648" version="1.1">
<defs>
<clipPath id="clip1">
  <path d="M 82 40 L 221 40 L 221 236.648438 L 82 236.648438 Z M 82 40 "/>
</clipPath>
<clipPath id="clip2">
  <path d="M 309 40 L 448 40 L 448 236.648438 L 309 236.648438 Z M 309 40 "/>
</clipPath>
<clipPath id="clip3">
  <path d="M 536 40 L 675 40 L 675 236.648438 L 536 236.648438 Z M 536 40 "/>
</clipPath>
<clipPath id="clip4">
  <path d="M 763 40 L 899.105469 40 L 899.105469 236.648438 L 763 236.648438 Z M 763 40 "/>
</clipPath>
</defs>
<g id="surface1">
<path style=" stroke:none;fill-rule:nonzero;fill:rgb(97.499084%,97.499084%,97.499084%);fill-opacity:1;" d="M 88.558594 233.128906 L 209.035156 233.128906 L 215.273438 46.039062 L 94.796875 46.039062 Z M 88.558594 233.128906 "/>
<g clip-path="url(#clip1)" clip-rule="nonzero">
<path style="fill:none;stroke-width:0.3985;stroke-linecap:butt;stroke-linejoin:miter;stroke:rgb(0%,0%,0%);stroke-opacity:1;stroke-miterlimit:10;" d="M 85.038594 -42.519906 L 205.515156 -42.519906 L 211.753437 144.569937 L 91.276875 144.569937 Z M 85.038594 -42.519906 " transform="matrix(1,0,0,-1,3.52,190.609)"/>
</g>
<path style="fill-rule:nonzero;fill:rgb(92.498779%,92.498779%,92.498779%);fill-opacity:1;stroke-width:0.3985;stroke-linecap:butt;stroke-linejoin:miter;stroke:rgb(0%,0%,0%);stroke-opacity:1;stroke-miterlimit:10;" d="M 56.694844 -28.348031 L 177.1675 -28.348031 L 183.405781 158.745719 L 62.929219 158.745719 Z M 56.694844 -28.348031 " transform="matrix(1,0,0,-1,3.52,190.609)"/>
<path style="fill-rule:nonzero;fill:rgb(87.5%,87.5%,87.5%);fill-opacity:1;stroke-width:0.3985;stroke-linecap:butt;stroke-linejoin:miter;stroke:rgb(0%,0%,0%);stroke-opacity:1;stroke-miterlimit:10;" d="M 28.347187 -14.17225 L 148.819844 -14.17225 L 155.058125 172.917594 L 34.585469 172.917594 Z M 28.347187 -14.17225 " transform="matrix(1,0,0,-1,3.52,190.609)"/>
<path style="fill-rule:nonzero;fill:rgb(82.499695%,82.499695%,82.499695%);fill-opacity:1;stroke-width:0.3985;stroke-linecap:butt;stroke-linejoin:miter;stroke:rgb(0%,0%,0%);stroke-opacity:1;stroke-miterlimit:10;" d="M -0.00046875 -0.000375 L 120.472187 -0.000375 L 126.710469 187.089469 L 6.237812 187.089469 Z M -0.00046875 -0.000375 " transform="matrix(1,0,0,-1,3.52,190.609)"/>
<path style=" stroke:none;fill-rule:nonzero;fill:rgb(97.499084%,97.499084%,97.499084%);fill-opacity:1;" d="M 315.332031 233.128906 L 435.804688 233.128906 L 442.042969 46.039062 L 321.570312 46.039062 Z M 315.332031 233.128906 "/>
<g clip-path="url(#clip2)" clip-rule="nonzero">
<path style="fill:none;stroke-width:0.3985;stroke-linecap:butt;stroke-linejoin:miter;stroke:rgb(0%,0%,0%);stroke-opacity:1;stroke-miterlimit:10;" d="M 85.041031 -42.519906 L 205.513688 -42.519906 L 211.751969 144.569937 L 91.279313 144.569937 Z M 85.041031 -42.519906 " transform="matrix(1,0,0,-1,230.291,190.609)"/>
</g>
<path style="fill-rule:nonzero;fill:rgb(92.498779%,92.498779%,92.498779%);fill-opacity:1;stroke-width:0.3985;stroke-linecap:butt;stroke-linejoin:miter;stroke:rgb(0%,0%,0%);stroke-opacity:1;stroke-miterlimit:10;" d="M 56.693375 -28.348031 L 177.166031 -28.348031 L 183.404313 158.745719 L 62.931656 158.745719 Z M 56.693375 -28.348031 " transform="matrix(1,0,0,-1,230.291,190.609)"/>
<path style="fill-rule:nonzero;fill:rgb(87.5%,87.5%,87.5%);fill-opacity:1;stroke-width:0.3985;stroke-linecap:butt;stroke-linejoin:miter;stroke:rgb(0%,0%,0%);stroke-opacity:1;stroke-miterlimit:10;" d="M 28.345719 -14.17225 L 148.822281 -14.17225 L 155.056656 172.917594 L 34.584 172.917594 Z M 28.345719 -14.17225 " transform="matrix(1,0,0,-1,230.291,190.609)"/>
<path style="fill-rule:nonzero;fill:rgb(82.499695%,82.499695%,82.499695%);fill-opacity:1;stroke-width:0.3985;stroke-linecap:butt;stroke-linejoin:miter;stroke:rgb(0%,0%,0%);stroke-opacity:1;stroke-miterlimit:10;" d="M -0.0019375 -0.000375 L 120.474625 -0.000375 L 126.712906 187.089469 L 6.236344 187.089469 Z M -0.0019375 -0.000375 " transform="matrix(1,0,0,-1,230.291,190.609)"/>
<path style=" stroke:none;fill-rule:nonzero;fill:rgb(97.499084%,97.499084%,97.499084%);fill-opacity:1;" d="M 542.101562 233.128906 L 662.578125 233.128906 L 668.816406 46.039062 L 548.339844 46.039062 Z M 542.101562 233.128906 "/>
<g clip-path="url(#clip3)" clip-rule="nonzero">
<path style="fill:none;stroke-width:0.3985;stroke-linecap:butt;stroke-linejoin:miter;stroke:rgb(0%,0%,0%);stroke-opacity:1;stroke-miterlimit:10;" d="M 85.038563 -42.519906 L 205.515125 -42.519906 L 211.753406 144.569937 L 91.276844 144.569937 Z M 85.038563 -42.519906 " transform="matrix(1,0,0,-1,457.063,190.609)"/>
</g>
<path style="fill-rule:nonzero;fill:rgb(92.498779%,92.498779%,92.498779%);fill-opacity:1;stroke-width:0.3985;stroke-linecap:butt;stroke-linejoin:miter;stroke:rgb(0%,0%,0%);stroke-opacity:1;stroke-miterlimit:10;" d="M 56.694813 -28.348031 L 177.167469 -28.348031 L 183.40575 158.745719 L 62.933094 158.745719 Z M 56.694813 -28.348031 " transform="matrix(1,0,0,-1,457.063,190.609)"/>
<path style="fill-rule:nonzero;fill:rgb(87.5%,87.5%,87.5%);fill-opacity:1;stroke-width:0.3985;stroke-linecap:butt;stroke-linejoin:miter;stroke:rgb(0%,0%,0%);stroke-opacity:1;stroke-miterlimit:10;" d="M 28.347156 -14.17225 L 148.819813 -14.17225 L 155.058094 172.917594 L 34.585438 172.917594 Z M 28.347156 -14.17225 " transform="matrix(1,0,0,-1,457.063,190.609)"/>
<path style="fill-rule:nonzero;fill:rgb(82.499695%,82.499695%,82.499695%);fill-opacity:1;stroke-width:0.3985;stroke-linecap:butt;stroke-linejoin:miter;stroke:rgb(0%,0%,0%);stroke-opacity:1;stroke-miterlimit:10;" d="M -0.0005 -0.000375 L 120.472156 -0.000375 L 126.710438 187.089469 L 6.237781 187.089469 Z M -0.0005 -0.000375 " transform="matrix(1,0,0,-1,457.063,190.609)"/>
<path style=" stroke:none;fill-rule:nonzero;fill:rgb(97.499084%,97.499084%,97.499084%);fill-opacity:1;" d="M 768.875 233.128906 L 889.347656 233.128906 L 895.585938 46.039062 L 775.113281 46.039062 Z M 768.875 233.128906 "/>
<g clip-path="url(#clip4)" clip-rule="nonzero">
<path style="fill:none;stroke-width:0.3985;stroke-linecap:butt;stroke-linejoin:miter;stroke:rgb(0%,0%,0%);stroke-opacity:1;stroke-miterlimit:10;" d="M 85.04 -42.519906 L 205.512656 -42.519906 L 211.750937 144.569937 L 91.278281 144.569937 Z M 85.04 -42.519906 " transform="matrix(1,0,0,-1,683.835,190.609)"/>
</g>
<path style="fill-rule:nonzero;fill:rgb(92.498779%,92.498779%,92.498779%);fill-opacity:1;stroke-width:0.3985;stroke-linecap:butt;stroke-linejoin:miter;stroke:rgb(0%,0%,0%);stroke-opacity:1;stroke-miterlimit:10;" d="M 56.692344 -28.348031 L 177.168906 -28.348031 L 183.403281 158.745719 L 62.930625 158.745719 Z M 56.692344 -28.348031 " transform="matrix(1,0,0,-1,683.835,190.609)"/>
<path style="fill-rule:nonzero;fill:rgb(87.5%,87.5%,87.5%);fill-opacity:1;stroke-width:0.3985;stroke-linecap:butt;stroke-linejoin:miter;stroke:rgb(0%,0%,0%);stroke-opacity:1;stroke-miterlimit:10;" d="M 28.348594 -14.17225 L 148.82125 -14.17225 L 155.059531 172.917594 L 34.582969 172.917594 Z M 28.348594 -14.17225 " transform="matrix(1,0,0,-1,683.835,190.609)"/>
<path style="fill-rule:nonzero;fill:rgb(82.499695%,82.499695%,82.499695%);fill-opacity:1;stroke-width:0.3985;stroke-linecap:butt;stroke-linejoin:miter;stroke:rgb(0%,0%,0%);stroke-opacity:1;stroke-miterlimit:10;" d="M 0.0009375 -0.000375 L 120.473594 -0.000375 L 126.711875 187.089469 L 6.239219 187.089469 Z M 0.0009375 -0.000375 " transform="matrix(1,0,0,-1,683.835,190.609)"/>
</g>
</svg>
