<?xml version="1.0" encoding="UTF-8"?>
<svg xmlns="http://www.w3.org/2000/svg" xmlns:xlink="http://www.w3.org/1999/xlink" width="459.734pt" height="222.474pt" viewBox="0 0 459.734 222.474" version="1.1">
<defs>
<clipPath id="clip1">
  <path d="M 54 26 L 193 26 L 193 222.472656 L 54 222.472656 Z M 54 26 "/>
</clipPath>
<clipPath id="clip2">
  <path d="M 323 19 L 459.734375 19 L 459.734375 218 L 323 218 Z M 323 19 "/>
</clipPath>
</defs>
<g id="surface1">
<path style=" stroke:none;fill-rule:nonzero;fill:rgb(87.5%,87.5%,87.5%);fill-opacity:1;" d="M 60.214844 218.953125 L 180.6875 218.953125 L 186.925781 31.863281 L 66.449219 31.863281 Z M 60.214844 218.953125 "/>
<g clip-path="url(#clip1)" clip-rule="nonzero">
<path style="fill:none;stroke-width:0.3985;stroke-linecap:butt;stroke-linejoin:miter;stroke:rgb(0%,0%,0%);stroke-opacity:1;stroke-miterlimit:10;" d="M 56.694844 -28.345125 L 177.1675 -28.345125 L 183.405781 158.744719 L 62.929219 158.744719 Z M 56.694844 -28.345125 " transform="matrix(1,0,0,-1,3.52,190.608)"/>
</g>
<path style="fill-rule:nonzero;fill:rgb(97.499084%,97.499084%,97.499084%);fill-opacity:1;stroke-width:0.3985;stroke-linecap:butt;stroke-linejoin:miter;stroke:rgb(0%,0%,0%);stroke-opacity:1;stroke-dasharray:2.98883,2.98883;stroke-miterlimit:10;" d="M 28.347188 -14.17325 L 148.819844 -14.17325 L 155.058125 172.916594 L 34.585469 172.916594 Z M 28.347188 -14.17325 " transform="matrix(1,0,0,-1,3.52,190.608)"/>
<path style="fill-rule:nonzero;fill:rgb(82.499695%,82.499695%,82.499695%);fill-opacity:1;stroke-width:0.3985;stroke-linecap:butt;stroke-linejoin:miter;stroke:rgb(0%,0%,0%);stroke-opacity:1;stroke-miterlimit:10;" d="M -0.00046875 -0.001375 L 120.472188 -0.001375 L 126.710469 187.092375 L 6.237813 187.092375 Z M -0.00046875 -0.001375 " transform="matrix(1,0,0,-1,3.52,190.608)"/>
<path style=" stroke:none;fill-rule:nonzero;fill:rgb(87.5%,87.5%,87.5%);fill-opacity:1;" d="M 329.503906 211.867188 L 449.980469 211.867188 L 456.214844 24.777344 L 335.742188 24.777344 Z M 329.503906 211.867188 "/>
<g clip-path="url(#clip2)" clip-rule="nonzero">
<path style="fill:none;stroke-width:0.3985;stroke-linecap:butt;stroke-linejoin:miter;stroke:rgb(0%,0%,0%);stroke-opacity:1;stroke-miterlimit:10;" d="M 28.345906 -14.173188 L 148.822469 -14.173188 L 155.056844 172.916656 L 34.584188 172.916656 Z M 28.345906 -14.173188 " transform="matrix(1,0,0,-1,301.158,197.694)"/>
</g>
<path style="fill-rule:nonzero;fill:rgb(82.499695%,82.499695%,82.499695%);fill-opacity:1;stroke-width:0.3985;stroke-linecap:butt;stroke-linejoin:miter;stroke:rgb(0%,0%,0%);stroke-opacity:1;stroke-miterlimit:10;" d="M -0.00175 -0.0013125 L 120.474813 -0.0013125 L 126.713094 187.092437 L 6.236531 187.092437 Z M -0.00175 -0.0013125 " transform="matrix(1,0,0,-1,301.158,197.694)"/>
<path style="fill:none;stroke-width:1.59404;stroke-linecap:butt;stroke-linejoin:miter;stroke:rgb(0%,0%,0%);stroke-opacity:1;stroke-miterlimit:10;" d="M 95.423531 -0.00128125 L 201.013375 -0.00128125 " transform="matrix(1,0,0,-1,95.221,111.237)"/>
<path style="fill:none;stroke-width:1.27522;stroke-linecap:round;stroke-linejoin:round;stroke:rgb(0%,0%,0%);stroke-opacity:1;stroke-miterlimit:10;" d="M -2.270696 3.029969 C -2.083196 1.89325 -0.001165 0.190125 0.569147 -0.00128125 C -0.001165 -0.188781 -2.083196 -1.891906 -2.270696 -3.028625 " transform="matrix(1,0,0,-1,296.23554,111.237)"/>
</g>
</svg>
